<svg width="14" height="14" viewBox="0 0 14 14" fill="none" xmlns="http://www.w3.org/2000/svg">
<path d="M7.00016 0.333313C3.32416 0.333313 0.333496 3.32398 0.333496 6.99998V9.76198C0.333496 10.4446 0.931496 11 1.66683 11H2.3335C2.51031 11 2.67988 10.9297 2.8049 10.8047C2.92992 10.6797 3.00016 10.5101 3.00016 10.3333V6.90465C3.00016 6.72784 2.92992 6.55827 2.8049 6.43324C2.67988 6.30822 2.51031 6.23798 2.3335 6.23798H1.72816C2.09883 3.65798 4.31883 1.66665 7.00016 1.66665C9.6815 1.66665 11.9015 3.65798 12.2722 6.23798H11.6668C11.49 6.23798 11.3204 6.30822 11.1954 6.43324C11.0704 6.55827 11.0002 6.72784 11.0002 6.90465V11C11.0002 11.7353 10.4022 12.3333 9.66683 12.3333H8.3335V11.6666H5.66683V13.6666H9.66683C11.1375 13.6666 12.3335 12.4706 12.3335 11C13.0688 11 13.6668 10.4446 13.6668 9.76198V6.99998C13.6668 3.32398 10.6762 0.333313 7.00016 0.333313Z" fill="#FCFAFA"/>
</svg>
